<?xml version="1.0" encoding="UTF-8" standalone="no"?>
    <!DOCTYPE svg PUBLIC "-//W3C//DTD SVG 1.1//EN" "http://www.w3.org/Graphics/SVG/1.1/DTD/svg11.dtd">
    <svg xmlns="http://www.w3.org/2000/svg" class="" width="100%" height="100%" viewBox="0 0 18 19">
        <g id="alternative">
    <g>
      <path class="icon-shadow" opacity="0.3" d="M9,.5a9,9,0,1,0,9,9A9,9,0,0,0,9,.5Z"></path>
      <path class="icon-background" fill="#96af8b" d="M9,0a9,9,0,1,0,9,9A9,9,0,0,0,9,0Z"></path>
    </g>
    <g>
      <g class="icon-component-shadow" opacity="0.2">
        <path d="M14.57,4.71l-4.42.2a.2.2,0,0,0-.11,0A.16.16,0,0,0,10,5a.21.21,0,0,0,0,.11.31.31,0,0,0,0,.1l1.4,1.4L8.92,9.13,6.5,6.71,8,5.24a.19.19,0,0,0,0-.1A.14.14,0,0,0,8,5,.15.15,0,0,0,8,4.94a.21.21,0,0,0-.11,0L3.42,4.71l-.08,0-.06,0a.18.18,0,0,0,0,.07.19.19,0,0,0,0,.08l.19,4.42a.15.15,0,0,0,0,.11.18.18,0,0,0,.08.07.25.25,0,0,0,.12,0,.18.18,0,0,0,.09-.06L5.21,8l2.55,2.56v4.49a.29.29,0,0,0,0,.09l0,.07.08,0,.09,0H9.85l.09,0a.18.18,0,0,0,.07,0l.05-.07a.29.29,0,0,0,0-.09V10.57l2.63-2.63,1.55,1.54a.16.16,0,0,0,.09,0,.17.17,0,0,0,.12,0,.18.18,0,0,0,.08-.07.13.13,0,0,0,0-.1l.19-4.43a.19.19,0,0,0,0-.08.18.18,0,0,0,0-.07l-.07,0Z"></path>
      </g>
      <path class="icon-component" fill="#fff" d="M14.57,4.21l-4.42.2a.2.2,0,0,0-.11,0,.16.16,0,0,0-.07.09.21.21,0,0,0,0,.11.31.31,0,0,0,0,.1l1.4,1.4L8.92,8.63,6.5,6.21,8,4.74a.19.19,0,0,0,0-.1.14.14,0,0,0,0-.11A.15.15,0,0,0,8,4.44a.21.21,0,0,0-.11,0L3.42,4.21l-.08,0-.06,0a.18.18,0,0,0,0,.07.19.19,0,0,0,0,.08l.19,4.42a.15.15,0,0,0,0,.11A.18.18,0,0,0,3.53,9a.25.25,0,0,0,.12,0A.18.18,0,0,0,3.74,9L5.21,7.51l2.55,2.56v4.49a.29.29,0,0,0,0,.09l0,.07.08,0,.09,0H9.85l.09,0a.18.18,0,0,0,.07,0l.05-.07a.29.29,0,0,0,0-.09V10.07l2.63-2.63L14.26,9a.16.16,0,0,0,.09,0,.17.17,0,0,0,.12,0A.18.18,0,0,0,14.55,9a.13.13,0,0,0,0-.1l.19-4.43a.19.19,0,0,0,0-.08.18.18,0,0,0,0-.07l-.07,0Z"></path>
    </g>
  </g>
    </svg>