<?xml version="1.0" encoding="UTF-8" standalone="no"?>
    <!DOCTYPE svg PUBLIC "-//W3C//DTD SVG 1.1//EN" "http://www.w3.org/Graphics/SVG/1.1/DTD/svg11.dtd">
    <svg xmlns="http://www.w3.org/2000/svg" class="" width="100%" height="100%" viewBox="0 0 18 19">
        <g id="critical">
    <g class="icon-shadow" opacity="0.3">
      <path d="M17.68,5.2,11.06,16.67a2.37,2.37,0,0,1-4.11,0L.32,5.2A2.38,2.38,0,0,1,2.38,1.64H15.62A2.38,2.38,0,0,1,17.68,5.2Z"></path>
    </g>
    <path class="icon-background" fill="#ad5b8c" d="M17.68,4.7,11.06,16.17a2.37,2.37,0,0,1-4.11,0L.32,4.7A2.38,2.38,0,0,1,2.38,1.14H15.62A2.38,2.38,0,0,1,17.68,4.7Z"></path>
    <g class="icon-component-shadow" opacity="0.2">
      <path d="M8.67,3.22,5.9,9.92V10a.14.14,0,0,0,0,.06l0,0,0,0H8.4a.1.1,0,0,1,.09,0,.09.09,0,0,1,0,.08l0,5c0,.11.17.17.21.07L12.1,8V7.92a.14.14,0,0,0,0-.06.09.09,0,0,0-.05,0l-.06,0H9.32a.11.11,0,0,1-.08,0,.12.12,0,0,1,0-.09l-.32-4.4C8.87,3.18,8.71,3.12,8.67,3.22Z"></path>
    </g>
    <path class="icon-component" fill="#fff" d="M8.67,2.72,5.9,9.42v.05a.14.14,0,0,0,0,.06l0,0,0,0H8.4a.1.1,0,0,1,.09,0,.09.09,0,0,1,0,.08l0,5c0,.11.17.17.21.07l3.4-7.24V7.42a.14.14,0,0,0,0-.06.09.09,0,0,0-.05,0l-.06,0H9.32a.11.11,0,0,1-.08,0,.12.12,0,0,1,0-.09l-.32-4.4C8.87,2.68,8.71,2.62,8.67,2.72Z"></path>
  </g>
    </svg>