<?xml version="1.0" encoding="UTF-8" standalone="no"?>
    <!DOCTYPE svg PUBLIC "-//W3C//DTD SVG 1.1//EN" "http://www.w3.org/Graphics/SVG/1.1/DTD/svg11.dtd">
    <svg xmlns="http://www.w3.org/2000/svg" class="" width="100%" height="100%" viewBox="0 0 18 19">
        <g id="free_piece">
    <path class="icon-shadow" opacity="0.3" d="M9,.5a9,9,0,1,0,9,9A9,9,0,0,0,9,.5Z"></path>
    <path class="icon-background" fill="#ec6250" d="M9,0a9,9,0,1,0,9,9A9,9,0,0,0,9,0Z"></path>
    <g class="icon-component-shadow" opacity="0.2">
      <path d="M9.76,9.66h3.89v4.19a.68.68,0,0,1-.68.68H9.76Z"></path>
      <path d="M4.35,9.66H8.24v4.87H5a.58.58,0,0,1-.26-.06.6.6,0,0,1-.36-.36.58.58,0,0,1,0-.26V9.66Z"></path>
      <path d="M13.39,7H10.13l2-1a.78.78,0,0,0,.29-.25.78.78,0,0,0,.13-.36A.82.82,0,0,0,12.53,5a.87.87,0,0,0-.23-.31l-1.15-1a.76.76,0,0,0-.34-.16.74.74,0,0,0-.39,0,.94.94,0,0,0-.33.2.84.84,0,0,0-.19.33L9.08,7H9l-.83-2.9A.73.73,0,0,0,8,3.81a.79.79,0,0,0-.33-.2.7.7,0,0,0-.38,0,.75.75,0,0,0-.35.16l-1.14,1A.87.87,0,0,0,5.54,5a.71.71,0,0,0,0,.38.78.78,0,0,0,.13.36A.71.71,0,0,0,5.91,6l2,1H4.61a.46.46,0,0,0-.49.44v.87a.47.47,0,0,0,.49.45h8.78a.47.47,0,0,0,.49-.45V7.48A.47.47,0,0,0,13.39,7Z"></path>
    </g>
    <g>
      <path class="icon-component" fill="#fff" d="M9.76,14H13a.71.71,0,0,0,.48-.19.72.72,0,0,0,.2-.48V9.16H9.76Z"></path>
      <path class="icon-component" fill="#fff" d="M4.36,13.35a.58.58,0,0,0,0,.26.6.6,0,0,0,.36.36A.58.58,0,0,0,5,14H8.24V9.16H4.36Z"></path>
      <path class="icon-component" fill="#fff" d="M13.39,6.54H10.13l2-1a.78.78,0,0,0,.29-.25.78.78,0,0,0,.13-.36.82.82,0,0,0-.05-.38.87.87,0,0,0-.23-.31l-1.15-1a.76.76,0,0,0-.34-.16.74.74,0,0,0-.39,0,.94.94,0,0,0-.33.2.84.84,0,0,0-.19.33l-.82,2.9H9l-.83-2.9A.73.73,0,0,0,8,3.31a.79.79,0,0,0-.33-.2.7.7,0,0,0-.38,0,.75.75,0,0,0-.35.16l-1.14,1a.87.87,0,0,0-.23.31.71.71,0,0,0,0,.38.78.78,0,0,0,.13.36.71.71,0,0,0,.29.25l2,1H4.61A.46.46,0,0,0,4.12,7v.87a.47.47,0,0,0,.49.45h8.78a.47.47,0,0,0,.49-.45V7A.47.47,0,0,0,13.39,6.54Z"></path>
    </g>
  </g>
    </svg>