<?xml version="1.0" encoding="UTF-8" standalone="no"?>
    <!DOCTYPE svg PUBLIC "-//W3C//DTD SVG 1.1//EN" "http://www.w3.org/Graphics/SVG/1.1/DTD/svg11.dtd">
    <svg xmlns="http://www.w3.org/2000/svg" class="" width="100%" height="100%" viewBox="0 0 18 19">
        <g id="sharp">
    <path class="icon-shadow" opacity="0.3" d="M9,.5a9,9,0,1,0,9,9A9,9,0,0,0,9,.5Z"></path>
    <path class="icon-background" fill="#ad5b8c" d="M9,0a9,9,0,1,0,9,9A9,9,0,0,0,9,0Z"></path>
    <g class="icon-component-shadow" opacity="0.2">
      <path d="M13.37,11.74,9.25,2.81a.22.22,0,0,0-.1-.11.27.27,0,0,0-.28,0,.18.18,0,0,0-.1.11L4.63,11.74a.26.26,0,0,0,0,.15.25.25,0,0,0,.08.14l2.67,2.29.07.09a.3.3,0,0,1,0,.1v1.08a.25.25,0,0,0,.08.18.24.24,0,0,0,.18.07h2.57a.26.26,0,0,0,.18-.07.25.25,0,0,0,.08-.18V14.51a.16.16,0,0,1,0-.1.47.47,0,0,1,.06-.09L13.31,12a.25.25,0,0,0,.08-.14A.26.26,0,0,0,13.37,11.74ZM9,5v8.73a.24.24,0,0,1-.38.17L5.91,11.76a.3.3,0,0,1-.09-.13.22.22,0,0,1,0-.16L8.84,5a.08.08,0,0,1,0,0h.06A.09.09,0,0,1,9,5S9,5,9,5Z"></path>
    </g>
    <path class="icon-component" fill="#fff" d="M13.37,11.24,9.25,2.31a.22.22,0,0,0-.1-.11.26.26,0,0,0-.28,0,.18.18,0,0,0-.1.11L4.63,11.24a.26.26,0,0,0,0,.15.25.25,0,0,0,.08.14l2.67,2.29.07.09a.3.3,0,0,1,0,.1v1.08a.25.25,0,0,0,.08.18.24.24,0,0,0,.18.07h2.57a.26.26,0,0,0,.18-.07.25.25,0,0,0,.08-.18V14a.16.16,0,0,1,0-.1.47.47,0,0,1,.06-.09l2.67-2.29a.25.25,0,0,0,.08-.14A.26.26,0,0,0,13.37,11.24ZM9,4.51v8.73a.24.24,0,0,1-.38.17L5.91,11.26a.3.3,0,0,1-.09-.13.22.22,0,0,1,0-.16l3-6.49a.08.08,0,0,1,0,0h.06a.09.09,0,0,1,.05,0S9,4.49,9,4.51Z"></path>
  </g>
    </svg>