<?xml version="1.0" encoding="UTF-8" standalone="no"?>
    <!DOCTYPE svg PUBLIC "-//W3C//DTD SVG 1.1//EN" "http://www.w3.org/Graphics/SVG/1.1/DTD/svg11.dtd">
    <svg xmlns="http://www.w3.org/2000/svg" class="" width="100%" height="100%" viewBox="0 0 18 19">
        <g id="threat">
    <path class="icon-shadow" opacity="0.3" d="M9,.5a9,9,0,1,0,9,9A9,9,0,0,0,9,.5Z"></path>
    <path class="icon-background" fill="#ec6250" d="M9,0a9,9,0,1,0,9,9A9,9,0,0,0,9,0Z"></path>
    <g class="icon-component-shadow" opacity="0.2">
      <path d="M15.12,9.65a6.14,6.14,0,0,1-3.78,5.65,6.19,6.19,0,0,1-3.53.35A6.15,6.15,0,0,1,3,10.84,6.11,6.11,0,0,1,9,3.53a6.15,6.15,0,0,1,6.12,6.12ZM5,9.65a4,4,0,0,0,.67,2.22,4.09,4.09,0,0,0,1.79,1.47,4,4,0,0,0,5.22-5.22A4,4,0,0,0,5,9.65Z"></path>
      <path d="M6.75,9.65a2.24,2.24,0,0,0,.38,1.25,2.27,2.27,0,0,0,1,.83,2.22,2.22,0,0,0,1.3.12,2.22,2.22,0,0,0,1.76-1.76,2.22,2.22,0,0,0-.13-1.3,2.25,2.25,0,0,0-4.32.86Z"></path>
    </g>
    <g>
      <path class="icon-component" fill="#fff" d="M15.12,9.15a6.14,6.14,0,0,1-3.78,5.65,6.19,6.19,0,0,1-3.53.35A6.15,6.15,0,0,1,3,10.34,6.11,6.11,0,0,1,9,3a6.15,6.15,0,0,1,6.12,6.12ZM5,9.15a4,4,0,0,0,.67,2.22,4.09,4.09,0,0,0,1.79,1.47,4,4,0,0,0,5.22-5.22A4,4,0,0,0,5,9.15Z"></path>
      <path class="icon-component" fill="#fff" d="M6.75,9.15a2.24,2.24,0,0,0,.38,1.25,2.27,2.27,0,0,0,1,.83,2.22,2.22,0,0,0,1.3.12A2.22,2.22,0,0,0,11.2,9.59a2.22,2.22,0,0,0-.13-1.3,2.25,2.25,0,0,0-4.32.86Z"></path>
    </g>
  </g>
    </svg>